# xmcd
#
# Track frame offsets: 
#        150
#        17233
#        28448
#        44683
#        57445
#        69080
#        89025
#        101080
#        111103
#        130255
#        142870
#        158723
#
# Disc length: 2311 seconds
#
# Revision: 2
# Processed by: cddbd v1.5.1PL2 Copyright (c) Steve Scherf et al.
# Submitted via: ExactAudioCopy v0.95b4
#
DISCID=aa09050c
DTITLE=Linda Ronstadt - Greatest Hits [1993 DCC Gold]
DYEAR=1976
DGENRE=Vocal
TTITLE0=You're no good
TTITLE1=Silver threads and golden needles
TTITLE2=Desperado
TTITLE3=Love is a rose
TTITLE4=That'll be the day
TTITLE5=Long, long time
TTITLE6=Different drum
TTITLE7=When will I be loved
TTITLE8=Love has no pride
TTITLE9=Heat Wave
TTITLE10=It doesn't matter anymore
TTITLE11=Tracks of my tears
EXTD=
EXTT0=
EXTT1=
EXTT2=
EXTT3=
EXTT4=
EXTT5=
EXTT6=
EXTT7=
EXTT8=
EXTT9=
EXTT10=
EXTT11=
PLAYORDER=
